<?xml version="1.0" encoding="UTF-8"?>
<svg version="1.1" xmlns="http://www.w3.org/2000/svg" width="128" height="128">
<path d="M0 0 C2.32395344 0.02166397 4.64488302 -0.0000358 6.96875 -0.02539062 C15.27474782 -0.04125892 22.4529304 -0.04837825 28.92871094 5.89794922 C33.72019911 11.1162165 34.92659937 16.70422169 34.83203125 23.57617188 C34.02385682 29.49232257 31.65257054 35.01191 29.4296875 40.52148438 C30.0484375 40.64523438 30.6671875 40.76898438 31.3046875 40.89648438 C33.4296875 41.52148438 33.4296875 41.52148438 35.4296875 43.52148438 C35.77468279 46.5278719 35.98835984 48.61638823 35.4296875 51.52148438 C33.1171875 54.33398438 33.1171875 54.33398438 30.4296875 56.52148438 C29.8728125 57.11960938 29.3159375 57.71773437 28.7421875 58.33398438 C27.4296875 59.52148438 27.4296875 59.52148438 25.4296875 59.52148438 C24.4396875 62.82148437 23.4496875 66.12148437 22.4296875 69.52148438 C23.81542969 69.53566406 25.20117188 69.54984375 26.62890625 69.56445312 C28.45836628 69.61136236 30.28779235 69.6596097 32.1171875 69.70898438 C33.48520508 69.71768555 33.48520508 69.71768555 34.88085938 69.7265625 C39.34239443 69.87257637 41.79323228 70.08869483 45.5546875 72.64648438 C47.85575191 76.17478313 47.95299494 78.15999703 47.7421875 82.33398438 C47.69707031 83.49542969 47.65195313 84.656875 47.60546875 85.85351562 C47.54746094 86.73394531 47.48945312 87.614375 47.4296875 88.52148438 C48.34363281 88.77542969 49.25757812 89.029375 50.19921875 89.29101562 C53.5262498 90.55826445 54.86164789 91.53283132 57.1171875 94.20898438 C57.67792969 94.85222656 58.23867187 95.49546875 58.81640625 96.15820312 C65.54014408 106.00774644 63.4296875 111.24620032 63.4296875 124.52148438 C22.5096875 124.52148438 -18.4103125 124.52148438 -60.5703125 124.52148438 C-60.5703125 100.92327009 -60.5703125 100.92327009 -53.8203125 93.63085938 C-50.84924296 90.89030385 -48.58006446 89.30237699 -44.5703125 88.52148438 C-44.62832031 87.64105469 -44.68632813 86.760625 -44.74609375 85.85351562 C-44.79121094 84.69207031 -44.83632813 83.530625 -44.8828125 82.33398438 C-44.94082031 81.18542969 -44.99882813 80.036875 -45.05859375 78.85351562 C-44.5703125 75.52148438 -44.5703125 75.52148438 -42.6953125 72.64648438 C-38.27124494 69.63811844 -34.49789359 69.74231351 -29.2578125 69.70898438 C-28.32646484 69.68384766 -27.39511719 69.65871094 -26.43554688 69.6328125 C-24.14671064 69.57412439 -21.85977824 69.53771269 -19.5703125 69.52148438 C-19.96726887 67.89155746 -20.38863743 66.26756202 -20.8203125 64.64648438 C-21.16835937 63.28910156 -21.16835937 63.28910156 -21.5234375 61.90429688 C-22.79113215 59.01887249 -23.70322765 58.64220445 -26.5703125 57.52148438 C-31.34809028 53.96592882 -31.34809028 53.96592882 -32.5703125 51.52148438 C-33.07933777 46.26155658 -33.07933777 46.26155658 -32.5703125 43.52148438 C-30.0703125 41.02148438 -30.0703125 41.02148438 -27.5703125 39.52148438 C-28.11171875 38.50441406 -28.11171875 38.50441406 -28.6640625 37.46679688 C-32.0189198 30.73844417 -33.11386979 26.02257492 -32.5703125 18.52148438 C-35.2103125 17.20148437 -37.8503125 15.88148437 -40.5703125 14.52148438 C-40.33203125 12.18164062 -40.33203125 12.18164062 -39.5703125 9.52148438 C-28.88017754 0.92745431 -13.12859519 -0.14562435 0 0 Z " fill="#030202" transform="translate(62.5703125,1.478515625)"/>
<path d="M0 0 C1.11755676 -0.00788544 1.11755676 -0.00788544 2.25769043 -0.01593018 C4.72221807 -0.02914123 7.18610047 -0.02038763 9.65063477 -0.01025391 C11.36312484 -0.01227455 13.07561407 -0.0151859 14.7881012 -0.01895142 C18.37851142 -0.02337643 21.96869782 -0.01693888 25.55908203 -0.00292969 C30.16050028 0.0141495 34.76139311 0.00433034 39.36279202 -0.01364708 C42.89984592 -0.02449119 46.43677542 -0.02103549 49.97383308 -0.0132637 C51.67029953 -0.01126276 53.36677727 -0.01371728 55.06323051 -0.02070236 C57.43568675 -0.02832584 59.80729442 -0.01670023 62.1796875 0 C63.23105644 -0.00910904 63.23105644 -0.00910904 64.30366516 -0.0184021 C67.28966392 0.0205161 69.42146313 0.26812068 72.09333801 1.64445496 C74.03292181 3.8108022 74.14241988 4.79651064 74.10864258 7.67602539 C74.10815918 8.54868042 74.10767578 9.42133545 74.10717773 10.32043457 C74.07648193 11.69008362 74.07648193 11.69008362 74.04516602 13.08740234 C74.0411377 13.92968384 74.03710938 14.77196533 74.03295898 15.63977051 C74.01203499 18.78529655 73.95618925 21.930512 73.90454102 25.07568359 C73.82204102 32.10880859 73.73954102 39.14193359 73.65454102 46.38818359 C45.93454102 46.38818359 18.21454102 46.38818359 -10.34545898 46.38818359 C-10.40733398 39.35505859 -10.46920898 32.32193359 -10.53295898 25.07568359 C-10.560271 22.85809326 -10.58758301 20.64050293 -10.61572266 18.35571289 C-10.62448381 16.59961492 -10.63212862 14.84351087 -10.63842773 13.08740234 C-10.65377563 12.17430298 -10.66912354 11.26120361 -10.68493652 10.32043457 C-10.68548035 9.01145203 -10.68548035 9.01145203 -10.68603516 7.67602539 C-10.69269699 6.91879684 -10.69935883 6.1615683 -10.70622253 5.38139343 C-10.34545898 3.38818359 -10.34545898 3.38818359 -9.28326416 1.64445496 C-6.34254683 -0.26200036 -3.39170512 -0.02930104 0 0 Z " fill="#D2CBBF" transform="translate(32.345458984375,75.61181640625)"/>
<path d="M0 0 C2.08243924 0.01622872 4.16297699 -0.00000793 6.24536133 -0.01904297 C7.58846451 -0.01706257 8.93156652 -0.0132231 10.2746582 -0.00732422 C11.47195557 -0.00394043 12.66925293 -0.00055664 13.90283203 0.00292969 C18.26853052 0.50846174 21.66895316 1.91043323 24.8996582 4.92626953 C28.2512861 9.30916755 29.39469415 11.34406525 29.38012695 16.82861328 C29.38399414 18.28074219 29.38399414 18.28074219 29.38793945 19.76220703 C29.25512695 22.39111328 29.25512695 22.39111328 28.25512695 25.39111328 C27.59512695 25.39111328 26.93512695 25.39111328 26.25512695 25.39111328 C25.76592773 24.37791016 25.76592773 24.37791016 25.2668457 23.34423828 C24.82985352 22.45220703 24.39286133 21.56017578 23.94262695 20.64111328 C23.51336914 19.75939453 23.08411133 18.87767578 22.6418457 17.96923828 C21.35409549 15.57511113 19.94596941 13.5133437 18.25512695 11.39111328 C15.31557983 12.4286005 13.16779097 13.45927795 10.69262695 15.39111328 C7.2449981 17.39700643 5.49145952 17.74548908 1.63012695 18.20361328 C-6.93651763 19.38632168 -13.35014591 24.07496311 -20.36987305 28.82861328 C-22.74487305 30.39111328 -22.74487305 30.39111328 -24.74487305 30.39111328 C-27.7360959 25.65501043 -27.98390526 22.17210506 -27.6550293 16.75830078 C-27.7565203 14.08423342 -28.32724208 12.64178512 -29.74487305 10.39111328 C-31.77804312 8.65685556 -31.77804312 8.65685556 -33.74487305 7.39111328 C-22.5833939 1.96194935 -12.41143164 -0.11520786 0 0 Z " fill="#946745" transform="translate(62.744873046875,5.60888671875)"/>
<path d="M0 0 C1.32 0 2.64 0 4 0 C4.13277344 0.71027344 4.26554687 1.42054687 4.40234375 2.15234375 C4.57894531 3.07144531 4.75554688 3.99054687 4.9375 4.9375 C5.19853516 6.31228516 5.19853516 6.31228516 5.46484375 7.71484375 C5.77714988 9.95289844 5.77714988 9.95289844 7 11 C9.03270562 11.23820921 9.03270562 11.23820921 11.375 11.25 C12.16648437 11.27578125 12.95796875 11.3015625 13.7734375 11.328125 C16.50835953 10.92508386 17.33074467 10.15807154 19 8 C19.71447643 5.89667109 19.71447643 5.89667109 20 4 C21.32 4 22.64 4 24 4 C24.99 6.31 25.98 8.62 27 11 C28.43655854 11.08131463 29.8744483 11.13933559 31.3125 11.1875 C32.11300781 11.22230469 32.91351563 11.25710937 33.73828125 11.29296875 C36.04615844 11.17488593 36.04615844 11.17488593 37.75 9.75 C39.22858982 7.67997425 39.48100821 6.33169981 39.6875 3.8125 C39.790625 2.554375 39.89375 1.29625 40 0 C41.32 0 42.64 0 44 0 C43.80967305 9.7585818 41.33841087 17.32317827 37 26 C27.1 26 17.2 26 7 26 C2.31615173 16.63230346 0.63112191 10.26403528 0 0 Z " fill="#F6DBAF" transform="translate(42,46)"/>
<path d="M0 0 C4.01160855 3.90385873 6.80571912 7.00311415 7.18359375 12.83203125 C7.1870897 15.55537295 7.09956792 18.27847681 7 21 C0.73 21.33 -5.54 21.66 -12 22 C-12.33 22.99 -12.66 23.98 -13 25 C-14.32 25 -15.64 25 -17 25 C-17.33 24.01 -17.66 23.02 -18 22 C-24.27 21.67 -30.54 21.34 -37 21 C-35.73212116 15.92848465 -33.27892506 14.84904114 -29.0625 12.3125 C-28.41603516 11.90966797 -27.76957031 11.50683594 -27.10351562 11.09179688 C-22.90594984 8.48956762 -20.38114183 6.97468984 -15.5 6.8125 C-9.32308171 6.29025326 -5.00131282 3.47963679 0 0 Z " fill="#F6DBAF" transform="translate(79,21)"/>
<path d="M0 0 C0.66 0 1.32 0 2 0 C2 8.91 2 17.82 2 27 C-1.96 27 -5.92 27 -10 27 C-10.54618259 10.97864389 -10.54618259 10.97864389 -4.4375 4.125 C-3.2309375 3.073125 -3.2309375 3.073125 -2 2 C-1.34 1.34 -0.68 0.68 0 0 Z " fill="#2C4C81" transform="translate(16,95)"/>
<path d="M0 0 C5.87652147 2.93826074 9.34290236 6.26103725 11.5078125 12.59765625 C12.48753848 17.37965213 12.16563801 22.14128512 12 27 C8.04 27 4.08 27 0 27 C0 18.09 0 9.18 0 0 Z " fill="#2C4C81" transform="translate(110,95)"/>
<path d="M0 0 C2.66589042 0.54323805 3.75768995 0.96351964 5.875 2.75 C7.21538506 5.84964046 7.42167869 7.71409302 6.875 11.0625 C4.41905875 14.38524404 2.9493356 15.83868008 -1.125 16.6875 C-5.1993356 15.83868008 -6.66905875 14.38524404 -9.125 11.0625 C-9.75 8.0625 -9.75 8.0625 -9.125 5.0625 C-6.50620524 1.2161452 -4.62486834 -0.35838463 0 0 Z " fill="#0D0D0C" transform="translate(65.125,99.9375)"/>
<path d="M0 0 C4.29238623 1.65091778 6.8793915 4.73754566 10 8 C8.34908222 12.29238623 5.26245434 14.8793915 2 18 C1.01 17.67 0.02 17.34 -1 17 C0.29299694 14.11562221 1.65941363 12.12780579 4 10 C2.70700306 7.11562221 1.34058637 5.12780579 -1 3 C-0.67 2.01 -0.34 1.02 0 0 Z " fill="#060404" transform="translate(76,79)"/>
<path d="M0 0 C0.99 0.33 1.98 0.66 3 1 C1.70700306 3.88437779 0.34058637 5.87219421 -2 8 C-0.70700306 10.88437779 0.65941363 12.87219421 3 15 C2.67 15.99 2.34 16.98 2 18 C-2.29238623 16.34908222 -4.8793915 13.26245434 -8 10 C-6.34908222 5.70761377 -3.26245434 3.1206085 0 0 Z " fill="#060404" transform="translate(50,79)"/>
<path d="M0 0 C0.99 0.33 1.98 0.66 3 1 C2.12429445 5.40785758 -0.31196487 8.30710183 -3.0625 11.75 C-3.53494141 12.35199219 -4.00738281 12.95398438 -4.49414062 13.57421875 C-5.65690401 15.05409943 -6.8276766 16.52768096 -8 18 C-8.99 17.67 -9.98 17.34 -11 17 C-10.12429445 12.59214242 -7.68803513 9.69289817 -4.9375 6.25 C-4.46505859 5.64800781 -3.99261719 5.04601562 -3.50585938 4.42578125 C-2.34309599 2.94590057 -1.1723234 1.47231904 0 0 Z " fill="#0D0908" transform="translate(68,79)"/>
<path d="M0 0 C2.64 0 5.28 0 8 0 C8.04241723 2.33294775 8.04092937 4.66702567 8 7 C7 8 7 8 4 8.125 C1 8 1 8 0 7 C-0.04092937 4.66702567 -0.04241723 2.33294775 0 0 Z " fill="#F0EEE9" transform="translate(70,46)"/>
<path d="M0 0 C2.64 0 5.28 0 8 0 C8.04241723 2.33294775 8.04092937 4.66702567 8 7 C7 8 7 8 4 8.125 C1 8 1 8 0 7 C-0.04092937 4.66702567 -0.04241723 2.33294775 0 0 Z " fill="#F0EEE9" transform="translate(50,46)"/>
<path d="M0 0 C2.625 0.375 2.625 0.375 5 1 C5.625 3.375 5.625 3.375 6 6 C5.34 6.66 4.68 7.32 4 8 C1.375 7.625 1.375 7.625 -1 7 C-1.625 4.625 -1.625 4.625 -2 2 C-1.34 1.34 -0.68 0.68 0 0 Z " fill="#D7D4CE" transform="translate(62,104)"/>
<path d="M0 0 C1.32 0.66 2.64 1.32 4 2 C3.60196439 4.88575819 3.20990931 5.82189513 0.9375 7.75 C-0.0215625 8.36875 -0.0215625 8.36875 -1 9 C-0.67 6.03 -0.34 3.06 0 0 Z " fill="#DBB97A" transform="translate(90,46)"/>
<path d="M0 0 C0.66 0 1.32 0 2 0 C2.33 2.97 2.66 5.94 3 9 C1.35 7.68 -0.3 6.36 -2 5 C-1.125 1.125 -1.125 1.125 0 0 Z " fill="#DCBA7A" transform="translate(36,46)"/>
</svg>
